<svg width="16" height="12" viewBox="0 0 16 12" fill="none" xmlns="http://www.w3.org/2000/svg">
<path d="M1 6L0.535761 5.81431C0.48808 5.93351 0.48808 6.06649 0.535761 6.18569L1 6ZM15 6L15.4642 6.1857C15.5119 6.06649 15.5119 5.93351 15.4642 5.8143L15 6ZM7.99998 10.5C5.68597 10.5 4.06111 9.34827 2.99664 8.16552C2.46405 7.57375 2.07811 6.98029 1.82563 6.53474C1.69968 6.31247 1.60772 6.12838 1.54797 6.00164C1.51811 5.9383 1.49635 5.8894 1.48246 5.85735C1.47552 5.84133 1.47055 5.82953 1.46752 5.82225C1.466 5.81861 1.46497 5.8161 1.46443 5.81477C1.46416 5.8141 1.46401 5.81372 1.46397 5.81364C1.46396 5.8136 1.46397 5.81364 1.46402 5.81375C1.46404 5.81381 1.46409 5.81394 1.4641 5.81397C1.46417 5.81413 1.46424 5.81431 1 6C0.535761 6.18569 0.535847 6.18591 0.535941 6.18614C0.535982 6.18625 0.536084 6.1865 0.536167 6.18671C0.536334 6.18712 0.536531 6.18761 0.53676 6.18818C0.537217 6.18931 0.5378 6.19075 0.538508 6.19248C0.539923 6.19595 0.54184 6.20062 0.544263 6.20644C0.549108 6.21808 0.555977 6.23436 0.564903 6.25495C0.582752 6.29614 0.608844 6.35467 0.643439 6.42805C0.712592 6.57474 0.815944 6.78128 0.955611 7.02776C1.23438 7.51971 1.66093 8.17625 2.25334 8.83448C3.43886 10.1517 5.314 11.5 7.99998 11.5V10.5ZM1 6C1.46424 6.18569 1.46417 6.18587 1.4641 6.18603C1.46409 6.18606 1.46404 6.18619 1.46402 6.18625C1.46397 6.18636 1.46396 6.1864 1.46397 6.18636C1.46401 6.18628 1.46416 6.1859 1.46443 6.18523C1.46497 6.1839 1.466 6.18139 1.46752 6.17775C1.47055 6.17047 1.47552 6.15867 1.48246 6.14265C1.49635 6.1106 1.51811 6.0617 1.54797 5.99836C1.60772 5.87162 1.69968 5.68753 1.82563 5.46526C2.07811 5.01971 2.46405 4.42625 2.99664 3.83448C4.06111 2.65173 5.68597 1.5 7.99998 1.5V0.5C5.314 0.5 3.43886 1.84827 2.25334 3.16552C1.66093 3.82375 1.23438 4.48029 0.955611 4.97224C0.815944 5.21872 0.712592 5.42526 0.643439 5.57195C0.608844 5.64533 0.582752 5.70386 0.564903 5.74505C0.555977 5.76564 0.549108 5.78192 0.544263 5.79356C0.54184 5.79938 0.539923 5.80405 0.538508 5.80752C0.5378 5.80925 0.537217 5.81069 0.53676 5.81182C0.536531 5.81239 0.536334 5.81288 0.536167 5.81329C0.536084 5.8135 0.535982 5.81375 0.535941 5.81386C0.535847 5.81409 0.535761 5.81431 1 6ZM7.99998 1.5C10.314 1.5 11.9389 2.65173 13.0033 3.83448C13.5359 4.42625 13.9219 5.01971 14.1744 5.46526C14.3003 5.68754 14.3923 5.87162 14.452 5.99837C14.4819 6.0617 14.5037 6.1106 14.5175 6.14265C14.5245 6.15868 14.5295 6.17048 14.5325 6.17775C14.534 6.18139 14.535 6.1839 14.5356 6.18524C14.5358 6.1859 14.536 6.18628 14.536 6.18636C14.536 6.1864 14.536 6.18636 14.536 6.18625C14.536 6.1862 14.5359 6.18606 14.5359 6.18603C14.5358 6.18587 14.5358 6.1857 15 6C15.4642 5.8143 15.4642 5.81409 15.4641 5.81385C15.464 5.81375 15.4639 5.8135 15.4638 5.81329C15.4637 5.81288 15.4635 5.81239 15.4632 5.81182C15.4628 5.81069 15.4622 5.80925 15.4615 5.80752C15.4601 5.80405 15.4582 5.79938 15.4557 5.79356C15.4509 5.78192 15.444 5.76564 15.4351 5.74504C15.4172 5.70385 15.3912 5.64533 15.3566 5.57195C15.2874 5.42526 15.1841 5.21871 15.0444 4.97224C14.7656 4.48029 14.3391 3.82375 13.7466 3.16552C12.5611 1.84827 10.686 0.5 7.99998 0.5V1.5ZM15 6C14.5358 5.8143 14.5358 5.81413 14.5359 5.81397C14.5359 5.81394 14.536 5.8138 14.536 5.81375C14.536 5.81364 14.536 5.8136 14.536 5.81364C14.536 5.81372 14.5358 5.8141 14.5356 5.81476C14.535 5.8161 14.534 5.81861 14.5325 5.82225C14.5295 5.82952 14.5245 5.84132 14.5175 5.85735C14.5037 5.8894 14.4819 5.9383 14.452 6.00163C14.3923 6.12838 14.3003 6.31246 14.1744 6.53474C13.9219 6.98029 13.5359 7.57375 13.0033 8.16552C11.9389 9.34827 10.314 10.5 7.99998 10.5V11.5C10.686 11.5 12.5611 10.1517 13.7466 8.83448C14.3391 8.17625 14.7656 7.51971 15.0444 7.02776C15.1841 6.78129 15.2874 6.57474 15.3566 6.42805C15.3912 6.35467 15.4172 6.29615 15.4351 6.25496C15.444 6.23436 15.4509 6.21808 15.4557 6.20644C15.4582 6.20062 15.4601 6.19595 15.4615 6.19248C15.4622 6.19075 15.4628 6.18931 15.4632 6.18818C15.4635 6.18761 15.4637 6.18712 15.4638 6.18671C15.4639 6.1865 15.464 6.18625 15.4641 6.18615C15.4642 6.18591 15.4642 6.1857 15 6ZM8 7.5C7.17157 7.5 6.5 6.82843 6.5 6H5.5C5.5 7.38071 6.61929 8.5 8 8.5V7.5ZM9.5 6C9.5 6.82843 8.82843 7.5 8 7.5V8.5C9.38071 8.5 10.5 7.38071 10.5 6H9.5ZM8 4.5C8.82843 4.5 9.5 5.17157 9.5 6H10.5C10.5 4.61929 9.38071 3.5 8 3.5V4.5ZM8 3.5C6.61929 3.5 5.5 4.61929 5.5 6H6.5C6.5 5.17157 7.17157 4.5 8 4.5V3.5Z" fill="#EDC59A"/>
</svg>
